# Alias OBJ Model File
# Exported from SketchUp, (c) 2000-2012 Trimble Navigation Limited
# File units = meters

mtllib bag.mtl

g Mesh1 Group1 Model

usemtl _Color_D06_1
v -0.0864866 0.0275779 -0.111544
vt 0 0
vn -7.92296e-016 1 3.64685e-031
v -0.0864866 0.0275779 0.108056
vt 7.08661 0
v 0.143413 0.0275779 0.108056
vt 7.08661 7.48031
v 0.143413 0.0275779 -0.111544
vt 0 7.48031
f 1/1/1 2/2/1 3/3/1 4/4/1 

v 0.143413 -0.00542211 0.108056
vt 7.48031 0
vn 1.34045e-031 -3.40313e-031 1
vt 7.48031 1.1811
vt 0 1.1811
v -0.0864866 -0.00542211 0.108056
f 5/5/2 3/6/2 2/7/2 6/1/2 

v 0.143413 -0.00542211 -0.111544
vn 1 -2.55994e-016 -2.06446e-016
vt -7.08661 1.1811
vt -7.08661 0
f 7/1/3 4/7/3 3/8/3 5/9/3 

vn -1.34045e-031 3.40313e-031 -1
vt -7.48031 1.1811
vt -7.48031 0
v -0.0864866 -0.00542211 -0.111544
f 1/7/4 4/10/4 7/11/4 8/1/4 

vn 7.92296e-016 -1 -3.64685e-031
vt -7.08661 7.48031
f 6/9/5 8/1/5 7/4/5 5/12/5 

