# Alias OBJ Model File
# Exported from SketchUp, (c) 2000-2012 Trimble Navigation Limited
# File units = meters

mtllib toothpick.mtl

g Mesh1 toothpick1 toothpick_1_1 Model

usemtl Wood_OSB
v 0.00432743 0.229134 -0.00590792
vt -0.00258189 0.00315956
vn 4.5897e-017 0.275602 -0.961272
v 0.00432743 0.228302 -0.00601032
vt -0.00326171 0.00315956
vn 2.32299e-017 0.139491 -0.990223
v -5.35492e-019 0.228302 -0.00601032
vt -0.00326171 0
v -3.96896e-019 0.229134 -0.00590792
vt -0.00258189 0
f 1/1/1 2/2/2 3/3/2 4/4/1 

v 0.00432743 0.228302 -0
vt 7.16325e-019 -0.00313742
vn 0.999987 -0.0051883 1.33377e-018
v 0.00216372 0 -0.00300516
vt 0.00260417 -0.227472
vt 0.00520833 -0.00313742
vt 0.0051196 -0.00231969
v 0.00432743 0.22991 -0.00560771
vt 0.00485944 -0.00155768
v 0.00432743 0.230576 -0.00513013
vt 0.00444559 -0.000903329
v 0.00432743 0.231087 -0.00450774
vt 0.00390625 -0.000401229
v 0.00432743 0.231408 -0.00378295
vt 0.00327817 -8.55957e-005
v 0.00432743 0.231518 -0.00300516
vt 0.00260417 2.2061e-005
v 0.00432743 0.231408 -0.00222737
vt 0.00193016 -8.55957e-005
v 0.00432743 0.231087 -0.00150258
vt 0.00130208 -0.000401229
v 0.00432743 0.230576 -0.000880191
vt 0.000762743 -0.000903329
v 0.00432743 0.22991 -0.000402615
vt 0.000348892 -0.00155768
v 0.00432743 0.229134 -0.000102398
vt 8.87348e-005 -0.00231969
f 5/5/3 6/6/3 2/7/3 1/8/3 7/9/3 8/10/3 9/11/3 10/12/3 11/13/3 12/14/3 13/15/3 14/16/3 15/17/3 16/18/3 

v -5.35492e-019 0.228302 -0
vt 0.00260391 0
vn -2.50944e-018 -0.0150687 0.999886
vt 0.187518 0.00157978
vt 0.00260391 0.00315956
f 17/19/4 6/20/4 5/21/4

vt 0.00521274 0.00314877
vn -0.999987 -0.00518375 8.20567e-006
vt 0.00292174 0.227488
vt 4.41085e-006 0.00315948
v -3.96896e-019 0.229134 -0.000102398
vt 9.20039e-005 0.00234156
v -2.67746e-019 0.22991 -0.000402615
vt 0.000351097 0.00157902
v -1.56842e-019 0.230576 -0.000880191
vt 0.000764034 0.000923822
v -7.17423e-020 0.231087 -0.00150258
vt 0.00130267 0.000420614
v -1.82464e-020 0.231408 -0.00222737
vt 0.00193031 0.00010369
v 0 0.231518 -0.00300516
vt 0.00260416 -5.35142e-006
v -1.82464e-020 0.231408 -0.00378295
vt 0.00327832 0.00010092
v -7.17423e-020 0.231087 -0.00450774
vt 0.00390684 0.000415262
v -1.56842e-019 0.230576 -0.00513013
vt 0.00444688 0.000916254
v -2.67746e-019 0.22991 -0.00560771
vt 0.00486164 0.00156975
vt 0.00512286 0.00233122
f 3/22/5 6/23/5 17/24/5 18/25/5 19/26/5 20/27/5 21/28/5 22/29/5 23/30/5 24/31/5 25/32/5 26/33/5 27/34/5 4/35/5 

vt -0.00253056 0.00315956
vn -2.50944e-018 -0.0150687 -0.999886
vt -0.187445 0.00157978
vt -0.00253056 0
f 2/36/6 6/37/6 3/38/6

vt 0.00258189 0.00315956
vn 2.32299e-017 0.139491 0.990223
vt 0.00190206 0.00315956
vn 4.5897e-017 0.275602 0.961272
vt 0.00190206 0
vt 0.00258189 0
f 5/39/7 16/40/8 18/41/8 17/42/7 

vt 0.00174928 0.00315956
vt 0.00106945 0.00315956
vn 8.75242e-017 0.525565 0.850753
vt 0.00106945 0
vt 0.00174928 0
f 16/43/8 15/44/9 19/45/9 18/46/8 

vt 0.00082062 0.00315956
vt 0.000140796 0.00315956
vn 1.2167e-016 0.730601 0.682805
vt 0.000140796 0
vt 0.00082062 0
f 15/47/9 14/48/10 20/49/10 19/50/9 

vt -0.000140796 0.00315956
vt -0.00082062 0.00315956
vn 1.46559e-016 0.88006 0.474863
vt -0.00082062 0
vt -0.000140796 0
f 14/51/10 13/52/11 21/53/11 20/54/10 

vt -0.00106945 0.00315956
vt -0.00174928 0.00315956
vn 1.61545e-016 0.970047 0.242919
vt -0.00174928 0
vt -0.00106945 0
f 13/55/11 12/56/12 22/57/12 21/58/11 

vt -0.00190206 0.00315956
vn 1.65287e-016 0.992515 0.122119
vt -0.00190206 0
f 12/59/12 11/1/13 23/4/13 22/60/12 

vn 1.65287e-016 0.992515 -0.122119
vn 1.61545e-016 0.970047 -0.242919
f 11/1/14 10/2/15 24/3/15 23/4/14 

vt -0.0030626 0.00315956
vt -0.00374242 0.00315956
vn 1.46559e-016 0.88006 -0.474863
vt -0.00374242 0
vt -0.0030626 0
f 10/61/15 9/62/16 25/63/16 24/64/15 

vt -0.00331143 0.00315956
vt -0.00399125 0.00315956
vn 1.2167e-016 0.730601 -0.682805
vt -0.00399125 0
vt -0.00331143 0
f 9/65/16 8/66/17 26/67/17 25/68/16 

vn 8.75242e-017 0.525565 -0.850753
f 8/65/17 7/66/18 27/67/18 26/68/17 

f 7/61/18 1/62/1 4/63/1 27/64/18 

